<svg width="36" height="35" viewBox="0 0 36 35" fill="none" xmlns="http://www.w3.org/2000/svg">
<path d="M3.22151 26.2501C3.62364 29.8378 6.53975 32.6863 10.1457 32.86C12.6381 32.9801 15.1842 33.0424 17.9475 33.0424C20.7108 33.0424 23.2569 32.9801 25.7493 32.86C29.3553 32.6863 32.2714 29.8378 32.6736 26.2501C32.9444 23.834 33.1665 21.357 33.1665 18.8337C33.1665 16.3104 32.9444 13.8334 32.6736 11.4174C32.2714 7.82967 29.3553 4.9811 25.7493 4.80743C23.2569 4.68739 20.7108 4.625 17.9475 4.625C15.1842 4.625 12.6381 4.68739 10.1457 4.80743C6.53975 4.9811 3.62364 7.82967 3.22151 11.4174C2.9507 13.8334 2.72852 16.3104 2.72852 18.8337C2.72852 21.357 2.9507 23.834 3.22151 26.2501Z" fill="white"/>
<path d="M12.3833 1.94531L12.3833 8.47464" stroke="#3A8371" stroke-width="3.73879" stroke-linecap="round"/>
<path d="M23.5991 1.94531L23.5991 8.47464" stroke="#3A8371" stroke-width="3.73879" stroke-linecap="round"/>
<path d="M32.1704 17L3.8293 17L4.22713 6.62486L17.8328 5.60986L32.1704 6.62486L32.1704 17Z" fill="#DDFDF5"/>
<path d="M3.22151 26.2501C3.62364 29.8378 6.53975 32.6863 10.1457 32.86C12.6381 32.9801 15.1842 33.0424 17.9475 33.0424C20.7108 33.0424 23.2569 32.9801 25.7493 32.86C29.3553 32.6863 32.2714 29.8378 32.6736 26.2501C32.9444 23.834 33.1665 21.357 33.1665 18.8337C33.1665 16.3104 32.9444 13.8334 32.6736 11.4174C32.2714 7.82967 29.3553 4.9811 25.7493 4.80743C23.2569 4.68739 20.7108 4.625 17.9475 4.625C15.1842 4.625 12.6381 4.68739 10.1457 4.80743C6.53975 4.9811 3.62364 7.82967 3.22151 11.4174C2.9507 13.8334 2.72852 16.3104 2.72852 18.8337C2.72852 21.357 2.9507 23.834 3.22151 26.2501Z" stroke="#3A8371" stroke-width="3.73879"/>
<path d="M3.45654 15.5312H32.5879" stroke="#3A8371" stroke-width="3.73879"/>
</svg>
